<svg width="800" height="600" viewBox="0 0 800 600" fill="none" xmlns="http://www.w3.org/2000/svg">
  <rect width="800" height="600" rx="36" fill="#0A1015"/>
  <rect width="800" height="260" fill="url(#sky)"/>
  <rect y="120" width="800" height="180" fill="url(#grass)"/>
  <rect y="212" width="800" height="18" fill="#95A4B0"/>
  <rect y="230" width="800" height="370" fill="url(#roadbase)"/>
  <rect x="38" y="255" width="724" height="250" rx="28" fill="#222831" stroke="#FFFFFF" stroke-opacity=".08"/>
  <rect x="64" y="280" width="672" height="48" rx="16" fill="#2A313B"/>
  <rect x="64" y="342" width="672" height="48" rx="16" fill="#2A313B"/>
  <rect x="64" y="404" width="672" height="48" rx="16" fill="#2A313B"/>
  <rect x="64" y="466" width="672" height="48" rx="16" fill="#2A313B"/>
  <path d="M112 304H226" stroke="white" stroke-opacity=".16" stroke-width="4" stroke-linecap="round" stroke-dasharray="16 18"/>
  <path d="M310 304H490" stroke="white" stroke-opacity=".16" stroke-width="4" stroke-linecap="round" stroke-dasharray="16 18"/>
  <path d="M574 304H688" stroke="white" stroke-opacity=".16" stroke-width="4" stroke-linecap="round" stroke-dasharray="16 18"/>
  <path d="M112 366H226" stroke="white" stroke-opacity=".16" stroke-width="4" stroke-linecap="round" stroke-dasharray="16 18"/>
  <path d="M310 366H490" stroke="white" stroke-opacity=".16" stroke-width="4" stroke-linecap="round" stroke-dasharray="16 18"/>
  <path d="M574 366H688" stroke="white" stroke-opacity=".16" stroke-width="4" stroke-linecap="round" stroke-dasharray="16 18"/>
  <path d="M112 428H226" stroke="white" stroke-opacity=".16" stroke-width="4" stroke-linecap="round" stroke-dasharray="16 18"/>
  <path d="M310 428H490" stroke="white" stroke-opacity=".16" stroke-width="4" stroke-linecap="round" stroke-dasharray="16 18"/>
  <path d="M574 428H688" stroke="white" stroke-opacity=".16" stroke-width="4" stroke-linecap="round" stroke-dasharray="16 18"/>
  <path d="M112 490H226" stroke="white" stroke-opacity=".16" stroke-width="4" stroke-linecap="round" stroke-dasharray="16 18"/>
  <path d="M310 490H490" stroke="white" stroke-opacity=".16" stroke-width="4" stroke-linecap="round" stroke-dasharray="16 18"/>
  <path d="M574 490H688" stroke="white" stroke-opacity=".16" stroke-width="4" stroke-linecap="round" stroke-dasharray="16 18"/>
  <g filter="url(#cardShadow)">
    <rect x="68" y="72" width="188" height="82" rx="30" fill="#283C2E"/>
    <rect x="90" y="94" width="144" height="16" rx="8" fill="#12181F" fill-opacity=".2"/>
    <rect x="112" y="117" width="100" height="10" rx="5" fill="#8EF5D6" fill-opacity=".28"/>
  </g>
  <g filter="url(#panelShadow)">
    <rect x="566" y="58" width="168" height="84" rx="24" fill="#0C1117" fill-opacity=".78" stroke="#79DFFF" stroke-opacity=".22"/>
    <text x="590" y="88" fill="#79DFFF" font-size="16" font-family="Arial, sans-serif" font-weight="700" letter-spacing="2">TOP LANE</text>
    <text x="590" y="122" fill="white" font-size="28" font-family="Arial, sans-serif" font-weight="800">6.80x</text>
  </g>
  <g transform="translate(308 126)">
    <ellipse cx="94" cy="34" rx="84" ry="34" fill="#2E4834"/>
    <rect x="78" y="56" width="8" height="36" rx="4" fill="#A3B1BD"/>
    <rect x="36" y="14" width="116" height="40" rx="20" fill="#334D38"/>
  </g>
  <g transform="translate(351 148)">
    <ellipse cx="45" cy="68" rx="26" ry="8" fill="black" fill-opacity=".24"/>
    <rect x="4" y="2" width="82" height="78" rx="28" fill="#FFE58B" stroke="#FFF6CB" stroke-opacity=".6"/>
    <rect x="14" y="-6" width="16" height="18" rx="8" fill="#FFF1A8"/>
    <rect x="56" y="-6" width="16" height="18" rx="8" fill="#FFF1A8"/>
    <rect x="12" y="24" width="12" height="20" rx="6" fill="#FFFBE2" fill-opacity=".8"/>
    <rect x="62" y="24" width="12" height="20" rx="6" fill="#FFFBE2" fill-opacity=".8"/>
    <circle cx="25" cy="20" r="4" fill="#221709"/>
    <circle cx="61" cy="20" r="4" fill="#221709"/>
    <rect x="35" y="34" width="12" height="8" rx="4" fill="#F7921E"/>
  </g>
  <g filter="url(#carGlow)">
    <g transform="translate(120 286)">
      <rect x="0" y="6" width="148" height="34" rx="16" fill="url(#carBlue)" stroke="rgba(255,255,255,.18)"/>
      <rect x="34" y="10" width="80" height="12" rx="6" fill="#DBF8FF"/>
      <rect x="44" y="10" width="60" height="12" rx="6" fill="url(#glassBlue)"/>
      <rect x="18" y="18" width="10" height="10" rx="5" fill="#FFF3B8"/>
      <rect x="122" y="18" width="8" height="10" rx="4" fill="#FF9584"/>
      <rect x="22" y="38" width="22" height="8" rx="4" fill="#090B10"/>
      <rect x="102" y="38" width="22" height="8" rx="4" fill="#090B10"/>
    </g>
    <g transform="translate(420 350)">
      <rect x="0" y="6" width="138" height="34" rx="16" fill="url(#carPink)" stroke="rgba(255,255,255,.18)"/>
      <rect x="28" y="10" width="76" height="12" rx="6" fill="#FFE4EF"/>
      <rect x="38" y="10" width="56" height="12" rx="6" fill="url(#glassPink)"/>
      <rect x="18" y="18" width="10" height="10" rx="5" fill="#FFF3B8"/>
      <rect x="114" y="18" width="8" height="10" rx="4" fill="#FF9584"/>
      <rect x="20" y="38" width="20" height="8" rx="4" fill="#090B10"/>
      <rect x="98" y="38" width="20" height="8" rx="4" fill="#090B10"/>
    </g>
    <g transform="translate(214 474)">
      <rect x="0" y="6" width="164" height="34" rx="16" fill="url(#carMint)" stroke="rgba(255,255,255,.18)"/>
      <rect x="40" y="10" width="86" height="12" rx="6" fill="#E4FFF7"/>
      <rect x="50" y="10" width="66" height="12" rx="6" fill="url(#glassMint)"/>
      <rect x="18" y="18" width="10" height="10" rx="5" fill="#FFF3B8"/>
      <rect x="138" y="18" width="8" height="10" rx="4" fill="#FF9584"/>
      <rect x="24" y="38" width="22" height="8" rx="4" fill="#090B10"/>
      <rect x="118" y="38" width="22" height="8" rx="4" fill="#090B10"/>
    </g>
  </g>
  <text x="70" y="552" fill="#9FEBC4" font-size="20" font-family="Arial, sans-serif" font-weight="700" letter-spacing="3">CROSSY ROAD</text>
  <text x="70" y="578" fill="white" fill-opacity=".42" font-size="18" font-family="Arial, sans-serif">Arcade traffic run with cashout timing</text>
  <defs>
    <linearGradient id="sky" x1="400" y1="0" x2="400" y2="260" gradientUnits="userSpaceOnUse">
      <stop stop-color="#14314A"/>
      <stop offset="1" stop-color="#0B1218"/>
    </linearGradient>
    <linearGradient id="grass" x1="400" y1="120" x2="400" y2="300" gradientUnits="userSpaceOnUse">
      <stop stop-color="#2F6E49"/>
      <stop offset="1" stop-color="#183122"/>
    </linearGradient>
    <linearGradient id="roadbase" x1="400" y1="230" x2="400" y2="600" gradientUnits="userSpaceOnUse">
      <stop stop-color="#11161D"/>
      <stop offset="1" stop-color="#090D12"/>
    </linearGradient>
    <linearGradient id="carBlue" x1="74" y1="6" x2="74" y2="40" gradientUnits="userSpaceOnUse">
      <stop stop-color="#7DD7FF"/>
      <stop offset=".55" stop-color="#3A8FFF"/>
      <stop offset="1" stop-color="#1D4BCE"/>
    </linearGradient>
    <linearGradient id="glassBlue" x1="74" y1="10" x2="74" y2="22" gradientUnits="userSpaceOnUse">
      <stop stop-color="#F1FDFF"/>
      <stop offset="1" stop-color="#7BD6FF"/>
    </linearGradient>
    <linearGradient id="carPink" x1="69" y1="6" x2="69" y2="40" gradientUnits="userSpaceOnUse">
      <stop stop-color="#FF9DC3"/>
      <stop offset=".55" stop-color="#FF6E8C"/>
      <stop offset="1" stop-color="#E63562"/>
    </linearGradient>
    <linearGradient id="glassPink" x1="66" y1="10" x2="66" y2="22" gradientUnits="userSpaceOnUse">
      <stop stop-color="#FFF4F8"/>
      <stop offset="1" stop-color="#FFA7BF"/>
    </linearGradient>
    <linearGradient id="carMint" x1="82" y1="6" x2="82" y2="40" gradientUnits="userSpaceOnUse">
      <stop stop-color="#8EF5D6"/>
      <stop offset=".55" stop-color="#27D3B1"/>
      <stop offset="1" stop-color="#0B9C85"/>
    </linearGradient>
    <linearGradient id="glassMint" x1="82" y1="10" x2="82" y2="22" gradientUnits="userSpaceOnUse">
      <stop stop-color="#F3FFFB"/>
      <stop offset="1" stop-color="#87F5D8"/>
    </linearGradient>
    <filter id="carGlow" x="104" y="276" width="470" height="220" filterUnits="userSpaceOnUse" color-interpolation-filters="sRGB">
      <feFlood flood-opacity="0" result="BackgroundImageFix"/>
      <feBlend in="SourceGraphic" in2="BackgroundImageFix" result="shape"/>
      <feGaussianBlur stdDeviation="6" result="effect1_foregroundBlur_1_2"/>
    </filter>
    <filter id="cardShadow" x="50" y="58" width="224" height="118" filterUnits="userSpaceOnUse" color-interpolation-filters="sRGB">
      <feFlood flood-opacity="0" result="BackgroundImageFix"/>
      <feColorMatrix in="SourceAlpha" type="matrix" values="0 0 0 0 0 0 0 0 0 0 0 0 0 0 0 0 0 0 127 0" result="hardAlpha"/>
      <feOffset dy="10"/>
      <feGaussianBlur stdDeviation="9"/>
      <feComposite in2="hardAlpha" operator="out"/>
      <feColorMatrix type="matrix" values="0 0 0 0 0 0 0 0 0 0 0 0 0 0 0 0 0 0 0.35 0"/>
      <feBlend in2="BackgroundImageFix" result="effect1_dropShadow_1_2"/>
      <feBlend in="SourceGraphic" in2="effect1_dropShadow_1_2" result="shape"/>
    </filter>
    <filter id="panelShadow" x="552" y="48" width="196" height="112" filterUnits="userSpaceOnUse" color-interpolation-filters="sRGB">
      <feFlood flood-opacity="0" result="BackgroundImageFix"/>
      <feColorMatrix in="SourceAlpha" type="matrix" values="0 0 0 0 0 0 0 0 0 0 0 0 0 0 0 0 0 0 127 0" result="hardAlpha"/>
      <feOffset dy="10"/>
      <feGaussianBlur stdDeviation="7"/>
      <feComposite in2="hardAlpha" operator="out"/>
      <feColorMatrix type="matrix" values="0 0 0 0 0 0 0 0 0 0.592157 0 0 0 0 1 0 0 0 0.2 0"/>
      <feBlend in2="BackgroundImageFix" result="effect1_dropShadow_1_2"/>
      <feBlend in="SourceGraphic" in2="effect1_dropShadow_1_2" result="shape"/>
    </filter>
  </defs>
</svg>
